<svg xmlns="http://www.w3.org/2000/svg" xmlns:xlink="http://www.w3.org/1999/xlink" width="3780" zoomAndPan="magnify" viewBox="0 0 2835 1417.499962" height="1890" preserveAspectRatio="xMidYMid meet" version="1.2"><defs><clipPath id="a245d29e1d"><path d="M 616 155.65625 L 682 155.65625 L 682 301 L 616 301 Z M 616 155.65625 "/></clipPath><clipPath id="01909375bc"><path d="M 444.585938 318 L 853.191406 318 L 853.191406 395.765625 L 444.585938 395.765625 Z M 444.585938 318 "/></clipPath><clipPath id="8ab59ed1ab"><path d="M 426 365 L 942 365 L 942 652 L 426 652 Z M 426 365 "/></clipPath><clipPath id="b3b945f443"><path d="M 318.710938 436.546875 L 895.339844 300.121094 L 1029.179688 865.820312 L 452.550781 1002.242188 Z M 318.710938 436.546875 "/></clipPath><clipPath id="c87dcd5c15"><path d="M 318.710938 436.546875 L 895.339844 300.121094 L 1029.179688 865.820312 L 452.550781 1002.242188 Z M 318.710938 436.546875 "/></clipPath><clipPath id="84c64cd11d"><path d="M 347 463 L 575 463 L 575 900 L 347 900 Z M 347 463 "/></clipPath><clipPath id="d7048b01c4"><path d="M 318.710938 436.546875 L 895.339844 300.121094 L 1029.179688 865.820312 L 452.550781 1002.242188 Z M 318.710938 436.546875 "/></clipPath><clipPath id="87ea401f30"><path d="M 318.710938 436.546875 L 895.339844 300.121094 L 1029.179688 865.820312 L 452.550781 1002.242188 Z M 318.710938 436.546875 "/></clipPath><clipPath id="c5c657b8a2"><path d="M 545 619 L 921 619 L 921 953 L 545 953 Z M 545 619 "/></clipPath><clipPath id="3215ce69bd"><path d="M 318.710938 436.546875 L 895.339844 300.121094 L 1029.179688 865.820312 L 452.550781 1002.242188 Z M 318.710938 436.546875 "/></clipPath><clipPath id="32e83348b2"><path d="M 318.710938 436.546875 L 895.339844 300.121094 L 1029.179688 865.820312 L 452.550781 1002.242188 Z M 318.710938 436.546875 "/></clipPath><clipPath id="93411d2b64"><path d="M 571 492.351562 L 727 492.351562 L 727 745 L 571 745 Z M 571 492.351562 "/></clipPath></defs><g id="d7a11aa3a3"><path style=" stroke:none;fill-rule:nonzero;fill:#80cc28;fill-opacity:1;" d="M 632.914062 312.230469 C 632.914062 312.230469 587.296875 311.574219 566.773438 279.195312 C 566.773438 279.195312 595.089844 301.292969 632.066406 305.019531 C 618.949219 219.335938 507.980469 238.480469 507.980469 238.480469 C 552.074219 346.1875 632.914062 312.230469 632.914062 312.230469 "/><g clip-rule="nonzero" clip-path="url(#a245d29e1d)"><path style=" stroke:none;fill-rule:nonzero;fill:#a6d71c;fill-opacity:1;" d="M 646.90625 300.992188 C 646.90625 300.992188 624.667969 261.0625 642.375 227.058594 C 642.375 227.058594 637.445312 262.691406 652.710938 296.648438 C 720.179688 242.417969 648.15625 155.664062 648.15625 155.664062 C 577.148438 247.792969 646.90625 300.992188 646.90625 300.992188 "/></g><path style=" stroke:none;fill-rule:nonzero;fill:#5ab334;fill-opacity:1;" d="M 663.617188 307.519531 C 663.617188 307.519531 686.992188 268.25 725.222656 266.617188 C 725.222656 266.617188 691.976562 280.15625 670.269531 310.386719 C 750.851562 341.839844 789.792969 235.9375 789.792969 235.9375 C 674.695312 220.363281 663.617188 307.519531 663.617188 307.519531 "/><g clip-rule="nonzero" clip-path="url(#01909375bc)"><path style=" stroke:none;fill-rule:nonzero;fill:#498536;fill-opacity:1;" d="M 648.886719 339.117188 C 729.433594 339.117188 802.039062 360.894531 853.152344 395.757812 C 813.261719 349.828125 736.742188 318.757812 648.886719 318.757812 C 561.035156 318.757812 484.511719 349.828125 444.625 395.757812 C 495.738281 360.894531 568.34375 339.117188 648.886719 339.117188 "/></g><g clip-rule="nonzero" clip-path="url(#8ab59ed1ab)"><g clip-rule="nonzero" clip-path="url(#b3b945f443)"><g clip-rule="nonzero" clip-path="url(#c87dcd5c15)"><path style=" stroke:none;fill-rule:nonzero;fill:#ff9a00;fill-opacity:1;" d="M 926.144531 500.867188 L 889.148438 510.558594 C 832.484375 403.878906 708.953125 344.234375 586.035156 373.316406 C 519.148438 389.140625 463.871094 428.53125 426.914062 480.609375 L 477.886719 451.550781 C 487.722656 445.949219 495.730469 450.625 495.667969 461.945312 L 495.417969 508.089844 C 522.234375 476.421875 559.003906 452.726562 602.394531 442.460938 C 687.4375 422.34375 772.890625 459.714844 817.808594 529.261719 L 800.070312 533.90625 C 789.105469 536.777344 786.664062 545.726562 794.632812 553.78125 L 886.277344 646.433594 C 894.242188 654.488281 903.210938 652.140625 906.203125 641.21875 L 940.621094 515.511719 C 943.617188 504.589844 937.097656 497.996094 926.144531 500.867188 "/></g></g></g><g clip-rule="nonzero" clip-path="url(#84c64cd11d)"><g clip-rule="nonzero" clip-path="url(#d7048b01c4)"><g clip-rule="nonzero" clip-path="url(#87ea401f30)"><path style=" stroke:none;fill-rule:nonzero;fill:#266f21;fill-opacity:1;" d="M 531.257812 829.257812 L 564.96875 821.035156 C 510.5625 796.042969 467.761719 747.179688 452.941406 684.542969 C 446.75 658.363281 446.027344 632.148438 449.984375 607.089844 L 466.855469 616.960938 C 476.640625 622.675781 484.699219 618.085938 484.761719 606.757812 L 485.46875 476.421875 C 485.539062 465.09375 477.542969 460.421875 467.691406 466.027344 L 354.476562 530.570312 C 344.617188 536.179688 344.574219 545.449219 354.355469 551.164062 L 385.398438 569.328125 C 374.390625 611.082031 373.175781 656.035156 383.789062 700.902344 C 407.253906 800.078125 482.535156 873.722656 574.160156 899.980469 L 525.46875 849.027344 C 517.65625 840.824219 520.246094 831.9375 531.257812 829.257812 "/></g></g></g><g clip-rule="nonzero" clip-path="url(#c5c657b8a2)"><g clip-rule="nonzero" clip-path="url(#3215ce69bd)"><g clip-rule="nonzero" clip-path="url(#32e83348b2)"><path style=" stroke:none;fill-rule:nonzero;fill:#5271ff;fill-opacity:1;" d="M 889.984375 662.101562 L 849.121094 620.78125 C 857.699219 718.582031 793.320312 810.730469 695.027344 833.988281 C 693.777344 834.28125 692.53125 834.523438 691.277344 834.800781 L 696.402344 817.285156 C 699.578125 806.398438 693.183594 799.710938 682.171875 802.386719 L 555.539062 833.234375 C 544.527344 835.910156 541.929688 844.800781 549.761719 853 L 639.78125 947.238281 C 647.613281 955.4375 656.617188 953.242188 659.800781 942.367188 L 669.359375 909.679688 C 683.304688 908.621094 697.347656 906.46875 711.390625 903.144531 C 842.9375 872.023438 929.574219 749.746094 920.265625 619.050781 L 909.90625 656.875 C 906.917969 667.800781 897.945312 670.152344 889.984375 662.101562 "/></g></g></g><path style=" stroke:none;fill-rule:nonzero;fill:#5271ff;fill-opacity:1;" d="M 586.894531 956.367188 C 470.742188 893.871094 427.144531 837.945312 410.882812 802.863281 C 404.121094 788.277344 382.847656 789.628906 377.957031 804.941406 C 364.3125 847.640625 369.375 921.863281 491.683594 1015.71875 C 491.683594 1015.71875 394 986.039062 333.421875 873.515625 C 272.832031 761 349.488281 548.339844 277.78125 532.253906 C 206.0625 516.191406 88.605469 1260.53125 690.765625 1203.644531 C 690.765625 1203.644531 782.246094 1061.457031 586.894531 956.367188 "/><path style=" stroke:none;fill-rule:nonzero;fill:#38b6ff;fill-opacity:1;" d="M 358.730469 655.195312 C 362.167969 634.753906 353.886719 614.113281 337.269531 601.703125 C 330.898438 596.953125 321.773438 600.953125 321.019531 608.859375 C 316.996094 651.257812 309.433594 759.992188 328.472656 835.191406 L 358.730469 655.195312 "/><path style=" stroke:none;fill-rule:nonzero;fill:#38b6ff;fill-opacity:1;" d="M 355.878906 725.726562 C 348.671875 750.050781 331.789062 812.757812 334.3125 858.917969 L 372.621094 757.132812 C 376.976562 745.570312 374.5 732.542969 366.195312 723.390625 C 363.015625 719.882812 357.21875 721.167969 355.878906 725.726562 "/><path style=" stroke:none;fill-rule:nonzero;fill:#5ab334;fill-opacity:1;" d="M 949.679688 655.195312 C 946.242188 634.753906 954.523438 614.113281 971.140625 601.703125 C 977.511719 596.953125 986.644531 600.953125 987.398438 608.859375 C 991.410156 651.257812 998.980469 759.992188 979.941406 835.191406 L 949.679688 655.195312 "/><path style=" stroke:none;fill-rule:nonzero;fill:#5ab334;fill-opacity:1;" d="M 952.527344 725.726562 C 959.734375 750.050781 976.617188 812.757812 974.105469 858.917969 L 935.789062 757.132812 C 931.433594 745.570312 933.910156 732.542969 942.21875 723.390625 C 945.398438 719.882812 951.191406 721.167969 952.527344 725.726562 "/><path style=" stroke:none;fill-rule:nonzero;fill:#498536;fill-opacity:1;" d="M 1030.625 532.253906 C 958.917969 548.339844 1035.582031 761 974.984375 873.515625 C 914.40625 986.039062 816.730469 1015.71875 816.730469 1015.71875 C 939.046875 921.863281 944.097656 847.640625 930.453125 804.941406 C 925.5625 789.628906 904.285156 788.277344 897.523438 802.863281 C 881.269531 837.945312 837.667969 893.878906 721.515625 956.367188 C 695.671875 970.257812 674.980469 984.824219 658.300781 999.609375 C 686.339844 1025.652344 704.757812 1054.5625 712.925781 1086.183594 C 729.796875 1151.496094 697.386719 1203.585938 695.511719 1206.542969 C 1209.148438 1194.242188 1099.074219 516.910156 1030.625 532.253906 "/><g clip-rule="nonzero" clip-path="url(#93411d2b64)"><path style=" stroke:none;fill-rule:nonzero;fill:#ff9a00;fill-opacity:1;" d="M 618.835938 677.125 C 624.574219 683.230469 631.695312 687.125 640.214844 688.777344 L 640.214844 630.757812 C 639.277344 630.390625 638.039062 629.976562 636.464844 629.5 C 634.890625 629.039062 633.175781 628.628906 631.332031 628.261719 C 624.480469 626.417969 617.722656 624.222656 611.0625 621.726562 C 604.402344 619.234375 598.425781 615.894531 593.148438 611.730469 C 587.871094 607.566406 583.660156 602.382812 580.527344 596.183594 C 577.378906 589.984375 575.804688 582.257812 575.804688 572.992188 C 575.804688 563.550781 577.617188 555.21875 581.226562 548.019531 C 584.835938 540.800781 589.589844 534.730469 595.515625 529.835938 C 601.429688 524.921875 608.28125 521.125 616.054688 518.453125 C 623.828125 515.765625 631.886719 514.160156 640.214844 513.589844 L 640.214844 492.242188 L 656.589844 492.242188 L 656.589844 513.621094 C 664.917969 514.542969 672.738281 516.355469 680.050781 519.023438 C 687.363281 521.710938 693.800781 525.414062 699.347656 530.136719 C 704.898438 534.855469 709.425781 540.738281 712.957031 547.765625 C 716.46875 554.808594 718.503906 563.136719 719.058594 572.753906 L 679.636719 572.753906 C 679.449219 565.347656 677.144531 559.050781 672.691406 553.867188 C 668.257812 548.6875 662.882812 546.078125 656.605469 546.078125 L 656.605469 595.214844 C 658.832031 595.769531 661.085938 596.328125 663.410156 596.882812 C 665.730469 597.441406 668.175781 598.089844 670.769531 598.824219 C 684.46875 602.527344 695.007812 607.121094 702.417969 612.574219 C 709.808594 618.023438 715.277344 623.730469 718.789062 629.644531 C 722.304688 635.558594 724.386719 641.488281 725.035156 647.417969 C 725.6875 653.34375 726.007812 658.605469 726.007812 663.234375 C 726.007812 667.316406 724.988281 672.4375 722.953125 678.636719 C 720.917969 684.851562 717.265625 690.890625 711.988281 696.820312 C 706.707031 702.75 699.636719 708.027344 690.75 712.652344 C 681.863281 717.277344 670.480469 720.042969 656.605469 720.984375 L 656.605469 744.570312 L 640.230469 744.570312 L 640.230469 720.984375 C 619.503906 719.503906 603.304688 713.113281 591.65625 701.828125 C 579.988281 690.542969 573.230469 673.976562 571.386719 652.136719 L 610.539062 652.136719 C 610.332031 662.691406 613.113281 671.003906 618.835938 677.125 Z M 631.058594 547.480469 C 628.105469 548.402344 625.417969 549.847656 623.015625 551.769531 C 620.617188 553.726562 618.726562 556.125 617.328125 558.988281 C 615.941406 561.863281 615.242188 565.234375 615.242188 569.113281 C 615.242188 575.234375 617.183594 579.9375 621.078125 583.277344 C 624.957031 586.597656 631.347656 589.285156 640.230469 591.320312 L 640.230469 546.078125 C 637.070312 546.078125 634.015625 546.539062 631.058594 547.480469 Z M 667.015625 686.425781 C 670.625 685.214844 673.867188 683.5 676.730469 681.289062 C 679.589844 679.082031 681.960938 676.332031 683.804688 673.089844 C 685.648438 669.859375 686.585938 666.015625 686.585938 661.5625 C 686.585938 654.347656 684.3125 648.941406 679.78125 645.332031 C 675.25 641.726562 667.527344 638.433594 656.605469 635.476562 L 656.605469 688.777344 C 659.925781 688.410156 663.410156 687.632812 667.015625 686.425781 Z M 667.015625 686.425781 "/></g><g style="fill:#266f21;fill-opacity:1;"><g transform="translate(1173.514348, 549.639678)"><path style="stroke:none" d="M 107.09375 0 L 14.40625 0 L 14.40625 -129.15625 L 109.0625 -129.15625 C 125.875 -129.15625 139.710938 -128.390625 150.578125 -126.859375 C 161.453125 -125.328125 169.832031 -122.925781 175.71875 -119.65625 C 181.601562 -116.382812 185.59375 -112.222656 187.6875 -107.171875 C 189.789062 -102.128906 190.84375 -96.097656 190.84375 -89.078125 C 190.664062 -83.546875 189.148438 -78.960938 186.296875 -75.328125 C 183.441406 -71.703125 180.109375 -69.003906 176.296875 -67.234375 C 172.484375 -65.460938 169.140625 -64.578125 166.265625 -64.578125 C 169.085938 -64.578125 172.390625 -64.019531 176.171875 -62.90625 C 179.953125 -61.800781 183.628906 -60.195312 187.203125 -58.09375 C 190.773438 -55.988281 193.742188 -53.4375 196.109375 -50.4375 C 198.484375 -47.4375 199.671875 -44.015625 199.671875 -40.171875 C 199.671875 -35.128906 199.082031 -30.503906 197.90625 -26.296875 C 196.738281 -22.097656 194.398438 -18.375 190.890625 -15.125 C 187.378906 -11.882812 182.203125 -9.140625 175.359375 -6.890625 C 168.515625 -4.640625 159.550781 -2.925781 148.46875 -1.75 C 137.394531 -0.582031 123.601562 0 107.09375 0 Z M 104.03125 -75.65625 C 111.945312 -75.65625 118.082031 -76.046875 122.4375 -76.828125 C 126.789062 -77.609375 129.804688 -78.789062 131.484375 -80.375 C 133.171875 -81.96875 134.015625 -84 134.015625 -86.46875 C 134.015625 -88.988281 133.171875 -91.039062 131.484375 -92.625 C 129.804688 -94.21875 126.789062 -95.390625 122.4375 -96.140625 C 118.082031 -96.890625 111.945312 -97.265625 104.03125 -97.265625 L 68.625 -97.265625 L 68.625 -75.65625 Z M 104.03125 -31.890625 C 112.132812 -31.890625 118.707031 -32.097656 123.75 -32.515625 C 128.789062 -32.929688 132.484375 -33.890625 134.828125 -35.390625 C 137.171875 -36.890625 138.34375 -39.320312 138.34375 -42.6875 C 138.34375 -46.050781 137.171875 -48.5 134.828125 -50.03125 C 132.484375 -51.5625 128.789062 -52.519531 123.75 -52.90625 C 118.707031 -53.300781 112.132812 -53.5 104.03125 -53.5 L 68.625 -53.5 L 68.625 -31.890625 Z M 104.03125 -31.890625 "/></g></g><g style="fill:#266f21;fill-opacity:1;"><g transform="translate(1369.487983, 549.639678)"><path style="stroke:none" d="M 217.0625 0 L 162.109375 0 L 149.953125 -21.171875 L 68.453125 -21.171875 L 56.296875 0 L 1.34375 0 L 84.03125 -129.15625 L 134.375 -129.15625 Z M 131.671875 -53.140625 L 109.25 -92.3125 L 86.734375 -53.140625 Z M 131.671875 -53.140625 "/></g></g><g style="fill:#266f21;fill-opacity:1;"><g transform="translate(1573.381871, 549.639678)"><path style="stroke:none" d="M 88.171875 2.796875 C 56.648438 2.796875 34.460938 -3.75 21.609375 -16.84375 C 10.804688 -27.832031 5.40625 -43.710938 5.40625 -64.484375 L 59.625 -64.484375 C 59.625 -55.484375 61.15625 -48.367188 64.21875 -43.140625 C 68.601562 -35.640625 76.585938 -31.890625 88.171875 -31.890625 C 99.878906 -31.890625 107.894531 -35.640625 112.21875 -43.140625 C 115.28125 -48.546875 116.8125 -55.660156 116.8125 -64.484375 L 116.8125 -129.15625 L 171.03125 -129.15625 L 171.03125 -63.765625 C 171.03125 -43.472656 165.65625 -27.832031 154.90625 -16.84375 C 142 -3.75 119.753906 2.796875 88.171875 2.796875 Z M 88.171875 2.796875 "/></g></g><g style="fill:#266f21;fill-opacity:1;"><g transform="translate(1752.436265, 549.639678)"><path style="stroke:none" d="M 170.046875 0 L 14.40625 0 L 14.40625 -129.25 L 162.921875 -129.25 L 162.921875 -97.265625 L 68.625 -97.265625 L 68.625 -77 L 148.34375 -77 L 148.34375 -52.140625 L 68.625 -52.140625 L 68.625 -31.96875 L 170.046875 -31.96875 Z M 170.046875 0 "/></g></g><g style="fill:#266f21;fill-opacity:1;"><g transform="translate(1929.600149, 549.639678)"><path style="stroke:none" d="M 190.84375 0 L 139.59375 0 C 137.257812 -3.238281 135.609375 -7.378906 134.640625 -12.421875 C 133.804688 -16.328125 132.546875 -20.15625 130.859375 -23.90625 C 129.179688 -27.664062 126.285156 -30.789062 122.171875 -33.28125 C 118.054688 -35.769531 111.945312 -37.101562 103.84375 -37.28125 L 68.625 -37.28125 L 68.625 0 L 14.40625 0 L 14.40625 -129.25 L 102.578125 -129.25 C 123.660156 -129.25 140.671875 -127.671875 153.609375 -124.515625 C 166.546875 -121.359375 175.984375 -116.398438 181.921875 -109.640625 C 187.867188 -102.890625 190.84375 -94.082031 190.84375 -83.21875 C 190.84375 -74.15625 188.785156 -66.53125 184.671875 -60.34375 C 180.566406 -54.15625 174.066406 -49.257812 165.171875 -45.65625 C 173.765625 -42.113281 179.335938 -37.863281 181.890625 -32.90625 C 184.441406 -27.957031 186.015625 -22.515625 186.609375 -16.578125 C 187.210938 -11.285156 188.625 -5.757812 190.84375 0 Z M 68.625 -69.171875 L 99.609375 -69.265625 C 108.253906 -69.265625 115.066406 -69.65625 120.046875 -70.4375 C 125.035156 -71.21875 128.710938 -72.28125 131.078125 -73.625 C 133.453125 -74.976562 134.96875 -76.476562 135.625 -78.125 C 136.289062 -79.78125 136.625 -81.476562 136.625 -83.21875 C 136.625 -84.957031 136.289062 -86.664062 135.625 -88.34375 C 134.96875 -90.03125 133.453125 -91.546875 131.078125 -92.890625 C 128.710938 -94.242188 125.035156 -95.3125 120.046875 -96.09375 C 115.066406 -96.875 108.253906 -97.265625 99.609375 -97.265625 L 68.625 -97.265625 Z M 68.625 -69.171875 "/></g></g><g style="fill:#266f21;fill-opacity:1;"><g transform="translate(2127.559227, 549.639678)"><path style="stroke:none" d="M 217.0625 0 L 162.109375 0 L 149.953125 -21.171875 L 68.453125 -21.171875 L 56.296875 0 L 1.34375 0 L 84.03125 -129.15625 L 134.375 -129.15625 Z M 131.671875 -53.140625 L 109.25 -92.3125 L 86.734375 -53.140625 Z M 131.671875 -53.140625 "/></g></g><g style="fill:#266f21;fill-opacity:1;"><g transform="translate(1173.514348, 803.200053)"><path style="stroke:none" d="M 107.09375 0 L 14.40625 0 L 14.40625 -129.15625 L 109.0625 -129.15625 C 125.875 -129.15625 139.710938 -128.390625 150.578125 -126.859375 C 161.453125 -125.328125 169.832031 -122.925781 175.71875 -119.65625 C 181.601562 -116.382812 185.59375 -112.222656 187.6875 -107.171875 C 189.789062 -102.128906 190.84375 -96.097656 190.84375 -89.078125 C 190.664062 -83.546875 189.148438 -78.960938 186.296875 -75.328125 C 183.441406 -71.703125 180.109375 -69.003906 176.296875 -67.234375 C 172.484375 -65.460938 169.140625 -64.578125 166.265625 -64.578125 C 169.085938 -64.578125 172.390625 -64.019531 176.171875 -62.90625 C 179.953125 -61.800781 183.628906 -60.195312 187.203125 -58.09375 C 190.773438 -55.988281 193.742188 -53.4375 196.109375 -50.4375 C 198.484375 -47.4375 199.671875 -44.015625 199.671875 -40.171875 C 199.671875 -35.128906 199.082031 -30.503906 197.90625 -26.296875 C 196.738281 -22.097656 194.398438 -18.375 190.890625 -15.125 C 187.378906 -11.882812 182.203125 -9.140625 175.359375 -6.890625 C 168.515625 -4.640625 159.550781 -2.925781 148.46875 -1.75 C 137.394531 -0.582031 123.601562 0 107.09375 0 Z M 104.03125 -75.65625 C 111.945312 -75.65625 118.082031 -76.046875 122.4375 -76.828125 C 126.789062 -77.609375 129.804688 -78.789062 131.484375 -80.375 C 133.171875 -81.96875 134.015625 -84 134.015625 -86.46875 C 134.015625 -88.988281 133.171875 -91.039062 131.484375 -92.625 C 129.804688 -94.21875 126.789062 -95.390625 122.4375 -96.140625 C 118.082031 -96.890625 111.945312 -97.265625 104.03125 -97.265625 L 68.625 -97.265625 L 68.625 -75.65625 Z M 104.03125 -31.890625 C 112.132812 -31.890625 118.707031 -32.097656 123.75 -32.515625 C 128.789062 -32.929688 132.484375 -33.890625 134.828125 -35.390625 C 137.171875 -36.890625 138.34375 -39.320312 138.34375 -42.6875 C 138.34375 -46.050781 137.171875 -48.5 134.828125 -50.03125 C 132.484375 -51.5625 128.789062 -52.519531 123.75 -52.90625 C 118.707031 -53.300781 112.132812 -53.5 104.03125 -53.5 L 68.625 -53.5 L 68.625 -31.890625 Z M 104.03125 -31.890625 "/></g></g><g style="fill:#266f21;fill-opacity:1;"><g transform="translate(1380.29561, 803.200053)"><path style="stroke:none" d="M 170.046875 0 L 14.40625 0 L 14.40625 -129.25 L 162.921875 -129.25 L 162.921875 -97.265625 L 68.625 -97.265625 L 68.625 -77 L 148.34375 -77 L 148.34375 -52.140625 L 68.625 -52.140625 L 68.625 -31.96875 L 170.046875 -31.96875 Z M 170.046875 0 "/></g></g><g style="fill:#266f21;fill-opacity:1;"><g transform="translate(1557.459494, 803.200053)"><path style="stroke:none" d="M 190.84375 0 L 139.59375 0 C 137.257812 -3.238281 135.609375 -7.378906 134.640625 -12.421875 C 133.804688 -16.328125 132.546875 -20.15625 130.859375 -23.90625 C 129.179688 -27.664062 126.285156 -30.789062 122.171875 -33.28125 C 118.054688 -35.769531 111.945312 -37.101562 103.84375 -37.28125 L 68.625 -37.28125 L 68.625 0 L 14.40625 0 L 14.40625 -129.25 L 102.578125 -129.25 C 123.660156 -129.25 140.671875 -127.671875 153.609375 -124.515625 C 166.546875 -121.359375 175.984375 -116.398438 181.921875 -109.640625 C 187.867188 -102.890625 190.84375 -94.082031 190.84375 -83.21875 C 190.84375 -74.15625 188.785156 -66.53125 184.671875 -60.34375 C 180.566406 -54.15625 174.066406 -49.257812 165.171875 -45.65625 C 173.765625 -42.113281 179.335938 -37.863281 181.890625 -32.90625 C 184.441406 -27.957031 186.015625 -22.515625 186.609375 -16.578125 C 187.210938 -11.285156 188.625 -5.757812 190.84375 0 Z M 68.625 -69.171875 L 99.609375 -69.265625 C 108.253906 -69.265625 115.066406 -69.65625 120.046875 -70.4375 C 125.035156 -71.21875 128.710938 -72.28125 131.078125 -73.625 C 133.453125 -74.976562 134.96875 -76.476562 135.625 -78.125 C 136.289062 -79.78125 136.625 -81.476562 136.625 -83.21875 C 136.625 -84.957031 136.289062 -86.664062 135.625 -88.34375 C 134.96875 -90.03125 133.453125 -91.546875 131.078125 -92.890625 C 128.710938 -94.242188 125.035156 -95.3125 120.046875 -96.09375 C 115.066406 -96.875 108.253906 -97.265625 99.609375 -97.265625 L 68.625 -97.265625 Z M 68.625 -69.171875 "/></g></g><g style="fill:#266f21;fill-opacity:1;"><g transform="translate(1755.418572, 803.200053)"><path style="stroke:none" d="M 85.375 2.796875 C 67.90625 2.796875 53.828125 0.921875 43.140625 -2.828125 C 32.453125 -6.585938 24.316406 -11.753906 18.734375 -18.328125 C 13.148438 -24.898438 9.394531 -32.476562 7.46875 -41.0625 L 65.03125 -41.0625 C 69.289062 -34.945312 76.070312 -31.890625 85.375 -31.890625 C 94.6875 -31.890625 101.472656 -34.945312 105.734375 -41.0625 C 106.097656 -41.664062 106.28125 -42.207031 106.28125 -42.6875 C 106.28125 -44.3125 104.128906 -45.523438 99.828125 -46.328125 C 95.535156 -47.140625 89.128906 -47.757812 80.609375 -48.1875 C 69.859375 -48.664062 58.570312 -49.804688 46.75 -51.609375 C 20.382812 -55.691406 7.203125 -66.289062 7.203125 -83.40625 C 7.203125 -84.84375 7.289062 -86.375 7.46875 -88 C 9.394531 -96.582031 13.148438 -104.160156 18.734375 -110.734375 C 24.316406 -117.304688 32.453125 -122.46875 43.140625 -126.21875 C 53.828125 -129.976562 67.90625 -131.859375 85.375 -131.859375 C 102.851562 -131.859375 116.9375 -129.976562 127.625 -126.21875 C 138.3125 -122.46875 146.445312 -117.304688 152.03125 -110.734375 C 157.613281 -104.160156 161.363281 -96.582031 163.28125 -88 L 105.734375 -88 C 101.472656 -94.125 94.6875 -97.1875 85.375 -97.1875 C 76.070312 -97.1875 69.289062 -94.125 65.03125 -88 C 64.726562 -87.507812 64.578125 -87.054688 64.578125 -86.640625 C 64.578125 -85.203125 66.632812 -84.132812 70.75 -83.4375 C 74.863281 -82.75 80.925781 -82.164062 88.9375 -81.6875 C 96.957031 -81.207031 105.5 -80.425781 114.5625 -79.34375 C 123.625 -78.257812 132.101562 -76.378906 140 -73.703125 C 147.894531 -71.035156 154.066406 -67.09375 158.515625 -61.875 C 161.992188 -57.851562 163.734375 -52.75 163.734375 -46.5625 C 163.734375 -44.820312 163.582031 -42.988281 163.28125 -41.0625 C 161.363281 -32.476562 157.613281 -24.898438 152.03125 -18.328125 C 146.445312 -11.753906 138.3125 -6.585938 127.625 -2.828125 C 116.9375 0.921875 102.851562 2.796875 85.375 2.796875 Z M 85.375 2.796875 "/></g></g><g style="fill:#266f21;fill-opacity:1;"><g transform="translate(1926.28089, 803.200053)"><path style="stroke:none" d="M 68.625 0 L 14.40625 0 L 14.40625 -129.25 L 68.625 -129.25 Z M 68.625 0 "/></g></g><g style="fill:#266f21;fill-opacity:1;"><g transform="translate(2009.281448, 803.200053)"><path style="stroke:none" d="M 190.9375 0 L 136.71875 0 L 136.71875 -52.140625 L 68.625 -52.140625 L 68.625 0 L 14.40625 0 L 14.40625 -129.25 L 68.625 -129.25 L 68.625 -77 L 136.71875 -77 L 136.71875 -129.25 L 190.9375 -129.25 Z M 190.9375 0 "/></g></g><g style="fill:#266f21;fill-opacity:1;"><g transform="translate(2214.567673, 803.200053)"><path style="stroke:none" d=""/></g></g><g style="fill:#266f21;fill-opacity:1;"><g transform="translate(1173.514348, 1056.760427)"><path style="stroke:none" d="M 107.09375 0 L 14.40625 0 L 14.40625 -129.15625 L 109.0625 -129.15625 C 125.875 -129.15625 139.710938 -128.390625 150.578125 -126.859375 C 161.453125 -125.328125 169.832031 -122.925781 175.71875 -119.65625 C 181.601562 -116.382812 185.59375 -112.222656 187.6875 -107.171875 C 189.789062 -102.128906 190.84375 -96.097656 190.84375 -89.078125 C 190.664062 -83.546875 189.148438 -78.960938 186.296875 -75.328125 C 183.441406 -71.703125 180.109375 -69.003906 176.296875 -67.234375 C 172.484375 -65.460938 169.140625 -64.578125 166.265625 -64.578125 C 169.085938 -64.578125 172.390625 -64.019531 176.171875 -62.90625 C 179.953125 -61.800781 183.628906 -60.195312 187.203125 -58.09375 C 190.773438 -55.988281 193.742188 -53.4375 196.109375 -50.4375 C 198.484375 -47.4375 199.671875 -44.015625 199.671875 -40.171875 C 199.671875 -35.128906 199.082031 -30.503906 197.90625 -26.296875 C 196.738281 -22.097656 194.398438 -18.375 190.890625 -15.125 C 187.378906 -11.882812 182.203125 -9.140625 175.359375 -6.890625 C 168.515625 -4.640625 159.550781 -2.925781 148.46875 -1.75 C 137.394531 -0.582031 123.601562 0 107.09375 0 Z M 104.03125 -75.65625 C 111.945312 -75.65625 118.082031 -76.046875 122.4375 -76.828125 C 126.789062 -77.609375 129.804688 -78.789062 131.484375 -80.375 C 133.171875 -81.96875 134.015625 -84 134.015625 -86.46875 C 134.015625 -88.988281 133.171875 -91.039062 131.484375 -92.625 C 129.804688 -94.21875 126.789062 -95.390625 122.4375 -96.140625 C 118.082031 -96.890625 111.945312 -97.265625 104.03125 -97.265625 L 68.625 -97.265625 L 68.625 -75.65625 Z M 104.03125 -31.890625 C 112.132812 -31.890625 118.707031 -32.097656 123.75 -32.515625 C 128.789062 -32.929688 132.484375 -33.890625 134.828125 -35.390625 C 137.171875 -36.890625 138.34375 -39.320312 138.34375 -42.6875 C 138.34375 -46.050781 137.171875 -48.5 134.828125 -50.03125 C 132.484375 -51.5625 128.789062 -52.519531 123.75 -52.90625 C 118.707031 -53.300781 112.132812 -53.5 104.03125 -53.5 L 68.625 -53.5 L 68.625 -31.890625 Z M 104.03125 -31.890625 "/></g></g><g style="fill:#266f21;fill-opacity:1;"><g transform="translate(1380.29561, 1056.760427)"><path style="stroke:none" d="M 170.046875 0 L 14.40625 0 L 14.40625 -129.25 L 162.921875 -129.25 L 162.921875 -97.265625 L 68.625 -97.265625 L 68.625 -77 L 148.34375 -77 L 148.34375 -52.140625 L 68.625 -52.140625 L 68.625 -31.96875 L 170.046875 -31.96875 Z M 170.046875 0 "/></g></g><g style="fill:#266f21;fill-opacity:1;"><g transform="translate(1557.459494, 1056.760427)"><path style="stroke:none" d="M 190.84375 0 L 139.59375 0 C 137.257812 -3.238281 135.609375 -7.378906 134.640625 -12.421875 C 133.804688 -16.328125 132.546875 -20.15625 130.859375 -23.90625 C 129.179688 -27.664062 126.285156 -30.789062 122.171875 -33.28125 C 118.054688 -35.769531 111.945312 -37.101562 103.84375 -37.28125 L 68.625 -37.28125 L 68.625 0 L 14.40625 0 L 14.40625 -129.25 L 102.578125 -129.25 C 123.660156 -129.25 140.671875 -127.671875 153.609375 -124.515625 C 166.546875 -121.359375 175.984375 -116.398438 181.921875 -109.640625 C 187.867188 -102.890625 190.84375 -94.082031 190.84375 -83.21875 C 190.84375 -74.15625 188.785156 -66.53125 184.671875 -60.34375 C 180.566406 -54.15625 174.066406 -49.257812 165.171875 -45.65625 C 173.765625 -42.113281 179.335938 -37.863281 181.890625 -32.90625 C 184.441406 -27.957031 186.015625 -22.515625 186.609375 -16.578125 C 187.210938 -11.285156 188.625 -5.757812 190.84375 0 Z M 68.625 -69.171875 L 99.609375 -69.265625 C 108.253906 -69.265625 115.066406 -69.65625 120.046875 -70.4375 C 125.035156 -71.21875 128.710938 -72.28125 131.078125 -73.625 C 133.453125 -74.976562 134.96875 -76.476562 135.625 -78.125 C 136.289062 -79.78125 136.625 -81.476562 136.625 -83.21875 C 136.625 -84.957031 136.289062 -86.664062 135.625 -88.34375 C 134.96875 -90.03125 133.453125 -91.546875 131.078125 -92.890625 C 128.710938 -94.242188 125.035156 -95.3125 120.046875 -96.09375 C 115.066406 -96.875 108.253906 -97.265625 99.609375 -97.265625 L 68.625 -97.265625 Z M 68.625 -69.171875 "/></g></g><g style="fill:#266f21;fill-opacity:1;"><g transform="translate(1755.418572, 1056.760427)"><path style="stroke:none" d="M 85.375 2.796875 C 67.90625 2.796875 53.828125 0.921875 43.140625 -2.828125 C 32.453125 -6.585938 24.316406 -11.753906 18.734375 -18.328125 C 13.148438 -24.898438 9.394531 -32.476562 7.46875 -41.0625 L 65.03125 -41.0625 C 69.289062 -34.945312 76.070312 -31.890625 85.375 -31.890625 C 94.6875 -31.890625 101.472656 -34.945312 105.734375 -41.0625 C 106.097656 -41.664062 106.28125 -42.207031 106.28125 -42.6875 C 106.28125 -44.3125 104.128906 -45.523438 99.828125 -46.328125 C 95.535156 -47.140625 89.128906 -47.757812 80.609375 -48.1875 C 69.859375 -48.664062 58.570312 -49.804688 46.75 -51.609375 C 20.382812 -55.691406 7.203125 -66.289062 7.203125 -83.40625 C 7.203125 -84.84375 7.289062 -86.375 7.46875 -88 C 9.394531 -96.582031 13.148438 -104.160156 18.734375 -110.734375 C 24.316406 -117.304688 32.453125 -122.46875 43.140625 -126.21875 C 53.828125 -129.976562 67.90625 -131.859375 85.375 -131.859375 C 102.851562 -131.859375 116.9375 -129.976562 127.625 -126.21875 C 138.3125 -122.46875 146.445312 -117.304688 152.03125 -110.734375 C 157.613281 -104.160156 161.363281 -96.582031 163.28125 -88 L 105.734375 -88 C 101.472656 -94.125 94.6875 -97.1875 85.375 -97.1875 C 76.070312 -97.1875 69.289062 -94.125 65.03125 -88 C 64.726562 -87.507812 64.578125 -87.054688 64.578125 -86.640625 C 64.578125 -85.203125 66.632812 -84.132812 70.75 -83.4375 C 74.863281 -82.75 80.925781 -82.164062 88.9375 -81.6875 C 96.957031 -81.207031 105.5 -80.425781 114.5625 -79.34375 C 123.625 -78.257812 132.101562 -76.378906 140 -73.703125 C 147.894531 -71.035156 154.066406 -67.09375 158.515625 -61.875 C 161.992188 -57.851562 163.734375 -52.75 163.734375 -46.5625 C 163.734375 -44.820312 163.582031 -42.988281 163.28125 -41.0625 C 161.363281 -32.476562 157.613281 -24.898438 152.03125 -18.328125 C 146.445312 -11.753906 138.3125 -6.585938 127.625 -2.828125 C 116.9375 0.921875 102.851562 2.796875 85.375 2.796875 Z M 85.375 2.796875 "/></g></g><g style="fill:#266f21;fill-opacity:1;"><g transform="translate(1926.28089, 1056.760427)"><path style="stroke:none" d="M 170.046875 0 L 14.40625 0 L 14.40625 -129.25 L 162.921875 -129.25 L 162.921875 -97.265625 L 68.625 -97.265625 L 68.625 -77 L 148.34375 -77 L 148.34375 -52.140625 L 68.625 -52.140625 L 68.625 -31.96875 L 170.046875 -31.96875 Z M 170.046875 0 "/></g></g><g style="fill:#266f21;fill-opacity:1;"><g transform="translate(2103.444774, 1056.760427)"><path style="stroke:none" d="M 260.109375 0 L 205.890625 0 L 205.890625 -82.40625 L 157.4375 0 L 117 0 L 68.625 -82.40625 L 68.625 0 L 14.40625 0 L 14.40625 -129.25 L 78.8125 -129.25 L 137.265625 -36.921875 L 195.625 -129.25 L 260.109375 -129.25 Z M 260.109375 0 "/></g></g><g style="fill:#266f21;fill-opacity:1;"><g transform="translate(2377.832733, 1056.760427)"><path style="stroke:none" d="M 68.625 0 L 14.40625 0 L 14.40625 -129.25 L 68.625 -129.25 Z M 68.625 0 "/></g></g></g></svg>